<mxfile modified="2023-03-24T09:48:35.950Z" host="app.diagrams.net" agent="5.0 (Windows NT 10.0; Win64; x64) AppleWebKit/537.36 (KHTML, like Gecko) Chrome/111.0.0.0 Safari/537.36" etag="Llf-Yih2VIbu4MsASSm7" version="21.0.2" type="github">
  <diagram id="C2fSY1v2SiZeoUbDoYyL" name="Page-1">
    <mxGraphModel dx="934" dy="565" grid="1" gridSize="10" guides="1" tooltips="1" connect="1" arrows="1" fold="1" page="1" pageScale="1" pageWidth="1169" pageHeight="827" math="0" shadow="0">
      <root>
        <mxCell id="0" />
        <mxCell id="1" parent="0" />
        <mxCell id="3ne1QswCM8ZiEu4GHsYG-31" value="Que faire Ã  Paris" style="text;html=1;strokeColor=none;fillColor=none;align=center;verticalAlign=middle;whiteSpace=wrap;rounded=0;fontStyle=1;fontSize=20;fontColor=#4D4D4D;" parent="1" vertex="1">
          <mxGeometry x="189.5" y="50" width="790" height="30" as="geometry" />
        </mxCell>
        <mxCell id="3ne1QswCM8ZiEu4GHsYG-32" value="" style="line;strokeWidth=2;html=1;fontSize=20;fontColor=#4D4D4D;" parent="1" vertex="1">
          <mxGeometry x="103.5" y="80" width="960" height="10" as="geometry" />
        </mxCell>
        <mxCell id="5fqPwOxyMFLANDVJ6WA--35" style="edgeStyle=orthogonalEdgeStyle;rounded=0;orthogonalLoop=1;jettySize=auto;html=1;" edge="1" parent="1" source="5fqPwOxyMFLANDVJ6WA--2" target="5fqPwOxyMFLANDVJ6WA--20">
          <mxGeometry relative="1" as="geometry" />
        </mxCell>
        <mxCell id="5fqPwOxyMFLANDVJ6WA--38" value="&#39;include&#39;" style="edgeLabel;html=1;align=center;verticalAlign=middle;resizable=0;points=[];" vertex="1" connectable="0" parent="5fqPwOxyMFLANDVJ6WA--35">
          <mxGeometry x="-0.1665" y="-2" relative="1" as="geometry">
            <mxPoint as="offset" />
          </mxGeometry>
        </mxCell>
        <mxCell id="5fqPwOxyMFLANDVJ6WA--2" value="Affichage la reponce" style="shape=image;verticalLabelPosition=bottom;verticalAlign=top;aspect=fixed;image=data:image/svg+xml,PHN2ZyB4bWxucz0iaHR0cDovL3d3dy53My5vcmcvMjAwMC9zdmciIHhtbG5zOnhsaW5rPSJodHRwOi8vd3d3LnczLm9yZy8xOTk5L3hsaW5rIiB2ZXJzaW9uPSIxLjEiIGlkPSJMYXllcl8xIiB4PSIwcHgiIHk9IjBweCIgd2lkdGg9IjQ4cHgiIGhlaWdodD0iNDhweCIgdmlld0JveD0iMCAwIDQ4IDQ4IiBlbmFibGUtYmFja2dyb3VuZD0ibmV3IDAgMCA0OCA0OCIgeG1sOnNwYWNlPSJwcmVzZXJ2ZSI+JiN4YTs8ZyBpZD0iY29sb3JfMjhfIj4mI3hhOwk8Zz4mI3hhOwkJPHBhdGggZmlsbC1ydWxlPSJldmVub2RkIiBjbGlwLXJ1bGU9ImV2ZW5vZGQiIGZpbGw9IiNGMTYzNjIiIGQ9Ik00NCwzOEgzM1Y3YzAtMC41NTMtMC40NDctMS0xLTFIN0M2LjQ0Nyw2LDYsNi40NDcsNiw3djMyICAgIGMwLDMuNjY3LDEuOTM4LDUuNzUxLDUuNDM1LDUuOTU5QzEzLjk5Miw0NC41NDgsMTYsNDAuNjE1LDE2LDM4aDJjMCwzLjY2Ny0yLjgyLDYuNjctNi40MSw2Ljk3QzExLjcyOSw0NC45NzYsMTEuODU1LDQ1LDEyLDQ1aDI3ICAgIGMyLjg2NiwwLDYtMi4xMzQsNi01di0xQzQ1LDM4LjQ0Nyw0NC41NTMsMzgsNDQsMzh6Ii8+JiN4YTsJPC9nPiYjeGE7PC9nPiYjeGE7PGcgaWQ9Im91dGxpbmVfMjdfIj4mI3hhOwk8Zz4mI3hhOwkJPHBhdGggZmlsbD0iIzM4NEQ2OCIgZD0iTTIwLDE4SDljLTAuNTUzLDAtMSwwLjQ0Ny0xLDFzMC40NDcsMSwxLDFoMTFjMC41NTMsMCwxLTAuNDQ3LDEtMVMyMC41NTMsMTgsMjAsMTh6IE0yMCwyMkg5ICAgIGMtMC41NTMsMC0xLDAuNDQ3LTEsMXMwLjQ0NywxLDEsMWgxMWMwLjU1MywwLDEtMC40NDcsMS0xUzIwLjU1MywyMiwyMCwyMnogTTQ1LDM3SDM0VjNjMC0wLjU1My0wLjQ0Ny0xLTEtMUgzICAgIEMyLjQ0NywyLDIsMi40NDcsMiwzdjM2YzAsMy44NjYsMy4xMzQsNyw3LDdoMzBjMy44NjYsMCw3LTMuMTM0LDctN3YtMUM0NiwzNy40NDcsNDUuNTUzLDM3LDQ1LDM3eiBNOSw0NGMtMi43NjIsMC01LTIuMjM4LTUtNVY0ICAgIGgyOHYzM0gxNWMtMC41NTMsMC0xLDAuNDQ3LTEsMXYxQzE0LDQxLjc2MiwxMS43NjIsNDQsOSw0NHogTTM5LDQ0SDEzLjg5NUMxNS4xOTIsNDIuNzI5LDE2LDQwLjk2LDE2LDM5aDI4ICAgIEM0NCw0MS43NjIsNDEuNzYyLDQ0LDM5LDQ0eiBNMzAsMTNWN2MwLTAuNTUzLTAuNDQ3LTEtMS0xSDdDNi40NDcsNiw2LDYuNDQ3LDYsN3Y2YzAsMC41NTMsMC40NDcsMSwxLDFoMjIgICAgQzI5LjU1MywxNCwzMCwxMy41NTMsMzAsMTN6IE0xNywxMWMwLDAuNTUzLTAuNDQ3LDEtMSwxSDhWOGg4YzAuNTUzLDAsMSwwLjQ0NywxLDFWMTF6IE0yOCwxMmgtOGMtMC41NTMsMC0xLTAuNDQ3LTEtMVY5ICAgIGMwLTAuNTUzLDAuNDQ3LTEsMS0xaDhWMTJ6IE0xNiwyN2MwLTAuNTUzLTAuNDQ3LTEtMS0xSDljLTAuNTUzLDAtMSwwLjQ0Ny0xLDFzMC40NDcsMSwxLDFoNkMxNS41NTMsMjgsMTYsMjcuNTUzLDE2LDI3eiIvPiYjeGE7CTwvZz4mI3hhOzwvZz4mI3hhOzwvc3ZnPg==" vertex="1" parent="1">
          <mxGeometry x="792" y="242" width="68" height="68" as="geometry" />
        </mxCell>
        <mxCell id="5fqPwOxyMFLANDVJ6WA--34" style="edgeStyle=orthogonalEdgeStyle;rounded=0;orthogonalLoop=1;jettySize=auto;html=1;" edge="1" parent="1" source="5fqPwOxyMFLANDVJ6WA--19" target="5fqPwOxyMFLANDVJ6WA--20">
          <mxGeometry relative="1" as="geometry" />
        </mxCell>
        <mxCell id="5fqPwOxyMFLANDVJ6WA--37" value="&#39;include&#39;" style="edgeLabel;html=1;align=center;verticalAlign=middle;resizable=0;points=[];" vertex="1" connectable="0" parent="5fqPwOxyMFLANDVJ6WA--34">
          <mxGeometry x="-0.4885" y="4" relative="1" as="geometry">
            <mxPoint as="offset" />
          </mxGeometry>
        </mxCell>
        <mxCell id="5fqPwOxyMFLANDVJ6WA--19" value="Affichage Map" style="verticalLabelPosition=bottom;shadow=0;dashed=0;align=center;html=1;verticalAlign=top;strokeWidth=1;shape=mxgraph.mockup.misc.map;" vertex="1" parent="1">
          <mxGeometry x="800" y="105" width="70" height="70" as="geometry" />
        </mxCell>
        <mxCell id="5fqPwOxyMFLANDVJ6WA--40" style="edgeStyle=orthogonalEdgeStyle;rounded=0;orthogonalLoop=1;jettySize=auto;html=1;" edge="1" parent="1" source="5fqPwOxyMFLANDVJ6WA--20" target="5fqPwOxyMFLANDVJ6WA--24">
          <mxGeometry relative="1" as="geometry" />
        </mxCell>
        <mxCell id="5fqPwOxyMFLANDVJ6WA--20" value="Appliquer" style="shape=image;html=1;verticalAlign=top;verticalLabelPosition=bottom;labelBackgroundColor=#ffffff;imageAspect=0;aspect=fixed;image=https://cdn4.iconfinder.com/data/icons/humility-icons-MERGE/48x48/stock/gtk-apply.png" vertex="1" parent="1">
          <mxGeometry x="510" y="256" width="40" height="40" as="geometry" />
        </mxCell>
        <mxCell id="5fqPwOxyMFLANDVJ6WA--46" style="edgeStyle=orthogonalEdgeStyle;rounded=0;orthogonalLoop=1;jettySize=auto;html=1;entryX=0;entryY=0.5;entryDx=0;entryDy=0;" edge="1" parent="1" source="5fqPwOxyMFLANDVJ6WA--22" target="5fqPwOxyMFLANDVJ6WA--24">
          <mxGeometry relative="1" as="geometry" />
        </mxCell>
        <mxCell id="5fqPwOxyMFLANDVJ6WA--47" style="edgeStyle=orthogonalEdgeStyle;rounded=0;orthogonalLoop=1;jettySize=auto;html=1;entryX=0;entryY=0.75;entryDx=0;entryDy=0;" edge="1" parent="1" source="5fqPwOxyMFLANDVJ6WA--22" target="5fqPwOxyMFLANDVJ6WA--23">
          <mxGeometry relative="1" as="geometry" />
        </mxCell>
        <mxCell id="5fqPwOxyMFLANDVJ6WA--22" value="Client" style="shape=mxgraph.cisco.people.standing_man;html=1;pointerEvents=1;dashed=0;fillColor=#036897;strokeColor=#ffffff;strokeWidth=2;verticalLabelPosition=bottom;verticalAlign=top;align=center;outlineConnect=0;" vertex="1" parent="1">
          <mxGeometry x="189.5" y="244" width="22" height="62" as="geometry" />
        </mxCell>
        <mxCell id="5fqPwOxyMFLANDVJ6WA--23" value="Effacer" style="shape=image;html=1;verticalAlign=top;verticalLabelPosition=bottom;labelBackgroundColor=#ffffff;imageAspect=0;aspect=fixed;image=https://cdn4.iconfinder.com/data/icons/evil-icons-user-interface/64/basket-128.png" vertex="1" parent="1">
          <mxGeometry x="338" y="393" width="54" height="54" as="geometry" />
        </mxCell>
        <mxCell id="5fqPwOxyMFLANDVJ6WA--24" value="Choisir les options" style="shape=image;verticalLabelPosition=bottom;verticalAlign=top;aspect=fixed;image=data:image/svg+xml,PHN2ZyB4bWxucz0iaHR0cDovL3d3dy53My5vcmcvMjAwMC9zdmciIHhtbG5zOnhsaW5rPSJodHRwOi8vd3d3LnczLm9yZy8xOTk5L3hsaW5rIiB2ZXJzaW9uPSIxLjEiIGlkPSJMYXllcl8xIiB4PSIwcHgiIHk9IjBweCIgd2lkdGg9IjQ4cHgiIGhlaWdodD0iNDhweCIgdmlld0JveD0iMCAwIDQ4IDQ4IiBlbmFibGUtYmFja2dyb3VuZD0ibmV3IDAgMCA0OCA0OCIgeG1sOnNwYWNlPSJwcmVzZXJ2ZSI+JiN4YTs8ZyBpZD0iY29sb3JfNTFfIj4mI3hhOwk8Zz4mI3hhOwkJPHBhdGggZmlsbD0iIzg5OENDNSIgZD0iTTQzLDZoLTV2NGMwLDEuMTA0LTAuODk2LDItMiwyaC0yYy0xLjEwNCwwLTItMC44OTYtMi0yVjZIMTh2NGMwLDEuMTA0LTAuODk2LDItMiwyaC0yICAgIGMtMS4xMDQsMC0yLTAuODk2LTItMlY2SDlDOC40NDcsNiw4LDYuNDQ3LDgsN3YzOGMwLDAuNTUzLDAuNDQ3LDEsMSwxaDM0YzAuNTUzLDAsMS0wLjQ0NywxLTFWN0M0NCw2LjQ0Nyw0My41NTMsNiw0Myw2eiIvPiYjeGE7CTwvZz4mI3hhOzwvZz4mI3hhOzxnIGlkPSJvdXRsaW5lXzQ5XyI+JiN4YTsJPGc+JiN4YTsJCTxwYXRoIGZpbGw9IiMzODRENjgiIGQ9Ik0xNS43MTUsMjguMjg1Yy0wLjM3NS0wLjM3NS0wLjk4Mi0wLjM3NS0xLjM1NywwTDEzLDI5LjY0M2wtMS4zNTctMS4zNTcgICAgYy0wLjM3NS0wLjM3NS0wLjk4Mi0wLjM3NS0xLjM1NywwYy0wLjM3NSwwLjM3NC0wLjM3NSwwLjk4MiwwLDEuMzU3TDExLjY0MywzMWwtMS4zNTcsMS4zNTdjLTAuMzc1LDAuMzc1LTAuMzc1LDAuOTgzLDAsMS4zNTcgICAgYzAuMzc1LDAuMzc1LDAuOTgyLDAuMzc1LDEuMzU3LDBMMTMsMzIuMzU3bDEuMzU3LDEuMzU3YzAuMzc1LDAuMzc1LDAuOTgyLDAuMzc1LDEuMzU3LDBjMC4zNzUtMC4zNzQsMC4zNzUtMC45ODIsMC0xLjM1NyAgICBMMTQuMzU3LDMxbDEuMzU3LTEuMzU3QzE2LjA5LDI5LjI2OCwxNi4wOSwyOC42NTksMTUuNzE1LDI4LjI4NXogTTE1LjcxNSwxOC4yODVjLTAuMzc1LTAuMzc1LTAuOTgyLTAuMzc1LTEuMzU3LDBMMTMsMTkuNjQzICAgIGwtMS4zNTctMS4zNTdjLTAuMzc1LTAuMzc1LTAuOTgyLTAuMzc1LTEuMzU3LDBjLTAuMzc1LDAuMzc0LTAuMzc1LDAuOTgyLDAsMS4zNTdMMTEuNjQzLDIxbC0xLjM1NywxLjM1NyAgICBjLTAuMzc1LDAuMzc1LTAuMzc1LDAuOTgyLDAsMS4zNTdzMC45ODIsMC4zNzUsMS4zNTcsMEwxMywyMi4zNTdsMS4zNTcsMS4zNTdjMC4zNzUsMC4zNzUsMC45ODIsMC4zNzUsMS4zNTcsMCAgICBzMC4zNzUtMC45ODIsMC0xLjM1N0wxNC4zNTcsMjFsMS4zNTctMS4zNTdDMTYuMDksMTkuMjY4LDE2LjA5LDE4LjY1OSwxNS43MTUsMTguMjg1eiBNNDEsNmgtNVY0YzAtMS4xMDQtMC44OTYtMi0yLTJoLTIgICAgYy0xLjEwNCwwLTIsMC44OTYtMiwydjJIMTZWNGMwLTEuMTA0LTAuODk2LTItMi0yaC0yYy0xLjEwNCwwLTIsMC44OTYtMiwydjJINUM0LjQ0Nyw2LDQsNi40NDcsNCw3djM4YzAsMC41NTMsMC40NDcsMSwxLDFoMzYgICAgYzAuNTUzLDAsMS0wLjQ0NywxLTFWN0M0Miw2LjQ0Nyw0MS41NTMsNiw0MSw2eiBNMzIsNWMwLTAuNTUzLDAuNDQ3LTEsMS0xczEsMC40NDcsMSwxdjRjMCwwLjU1My0wLjQ0NywxLTEsMXMtMS0wLjQ0Ny0xLTFWNXogICAgIE0xMiw1YzAtMC41NTMsMC40NDctMSwxLTFzMSwwLjQ0NywxLDF2NGMwLDAuNTUzLTAuNDQ3LDEtMSwxcy0xLTAuNDQ3LTEtMVY1eiBNNDAsNDRINlY4aDR2MmMwLDEuMTA0LDAuODk2LDIsMiwyaDIgICAgYzEuMTA0LDAsMi0wLjg5NiwyLTJWOGgxNHYyYzAsMS4xMDQsMC44OTYsMiwyLDJoMmMxLjEwNCwwLDItMC44OTYsMi0yVjhoNFY0NHogTTM0LDIwSDIwYy0wLjU1MywwLTEsMC40NDctMSwxczAuNDQ3LDEsMSwxaDE0ICAgIGMwLjU1MywwLDEtMC40NDcsMS0xUzM0LjU1MywyMCwzNCwyMHogTTMwLDMwSDIwYy0wLjU1MywwLTEsMC40NDctMSwxczAuNDQ3LDEsMSwxaDEwYzAuNTUzLDAsMS0wLjQ0NywxLTFTMzAuNTUzLDMwLDMwLDMweiIvPiYjeGE7CTwvZz4mI3hhOzwvZz4mI3hhOzwvc3ZnPg==" vertex="1" parent="1">
          <mxGeometry x="344" y="252" width="48" height="48" as="geometry" />
        </mxCell>
        <mxCell id="5fqPwOxyMFLANDVJ6WA--36" style="edgeStyle=orthogonalEdgeStyle;rounded=0;orthogonalLoop=1;jettySize=auto;html=1;" edge="1" parent="1" source="5fqPwOxyMFLANDVJ6WA--25" target="5fqPwOxyMFLANDVJ6WA--20">
          <mxGeometry relative="1" as="geometry" />
        </mxCell>
        <mxCell id="5fqPwOxyMFLANDVJ6WA--39" value="&#39;include&#39;" style="edgeLabel;html=1;align=center;verticalAlign=middle;resizable=0;points=[];" vertex="1" connectable="0" parent="5fqPwOxyMFLANDVJ6WA--36">
          <mxGeometry x="-0.4732" relative="1" as="geometry">
            <mxPoint as="offset" />
          </mxGeometry>
        </mxCell>
        <mxCell id="5fqPwOxyMFLANDVJ6WA--25" value="Afichage Graph" style="image;html=1;image=img/lib/clip_art/finance/Graph_128x128.png" vertex="1" parent="1">
          <mxGeometry x="790" y="380" width="80" height="80" as="geometry" />
        </mxCell>
      </root>
    </mxGraphModel>
  </diagram>
</mxfile>
